<svg xmlns="http://www.w3.org/2000/svg" class="plt-container" width="1000.0" height="500.0">
    <style type="text/css">
        .plt-container {
        font-family: "Lucida Grande", sans-serif;
        cursor: crosshair;
        user-select: none;
        -webkit-user-select: none;
        -moz-user-select: none;
        -ms-user-select: none;
        }
        .plt-backdrop {
        fill: white;
        }
        .plt-transparent .plt-backdrop {
        visibility: hidden;
        }
        text {
        font-size: 12px;
        fill: #3d3d3d;
        }
        .plt-data-tooltip text {
        font-size: 12px;
        }
        .plt-axis-tooltip text {
        font-size: 10px;
        }
        .plt-axis line {
        shape-rendering: crispedges;
        }
        .plt-plot-title {

        font-size: 16.0px;
        font-weight: bold;
        }
        .plt-axis .tick text {

        font-size: 10.0px;
        }
        .plt-axis.small-tick-font .tick text {

        font-size: 8.0px;
        }
        .plt-axis-title text {

        font-size: 12.0px;
        }
        .plt_legend .legend-title text {

        font-size: 12.0px;
        font-weight: bold;
        }
        .plt_legend text {

        font-size: 10.0px;
        }

    </style>
    <rect class="plt-backdrop" width="100%" height="100%">
    </rect>
    <g class="plt-plot">
        <g class="plt-plot-title" transform="translate(500.0 12.0 ) ">
            <text text-anchor="middle" dy="0.35em">
                Exact CDF
            </text>
        </g>
        <g transform="translate(20.0 34.0 ) ">
            <g transform="translate(29.1 427.0 ) " class="plt-axis">
                <g class="tick" transform="translate(34.03998144712431 0.0 ) ">
                    <line stroke-width="1.0" stroke="rgb(0,0,0)" stroke-opacity="1.0" x2="0.0" y2="6.0">
                    </line>
                    <g transform="translate(0.0 9.0 ) ">
                        <text style="fill:transparent;" text-anchor="middle" dy="0.7em">
                            0.0
                        </text>
                    </g>
                </g>
                <g class="tick" transform="translate(121.3219851576994 0.0 ) ">
                    <line stroke-width="1.0" stroke="rgb(0,0,0)" stroke-opacity="1.0" x2="0.0" y2="6.0">
                    </line>
                    <g transform="translate(0.0 9.0 ) ">
                        <text style="fill:transparent;" text-anchor="middle" dy="0.7em">
                            0.1
                        </text>
                    </g>
                </g>
                <g class="tick" transform="translate(208.60398886827448 0.0 ) ">
                    <line stroke-width="1.0" stroke="rgb(0,0,0)" stroke-opacity="1.0" x2="0.0" y2="6.0">
                    </line>
                    <g transform="translate(0.0 9.0 ) ">
                        <text style="fill:transparent;" text-anchor="middle" dy="0.7em">
                            0.2
                        </text>
                    </g>
                </g>
                <g class="tick" transform="translate(295.8859925788496 0.0 ) ">
                    <line stroke-width="1.0" stroke="rgb(0,0,0)" stroke-opacity="1.0" x2="0.0" y2="6.0">
                    </line>
                    <g transform="translate(0.0 9.0 ) ">
                        <text style="fill:transparent;" text-anchor="middle" dy="0.7em">
                            0.3
                        </text>
                    </g>
                </g>
                <g class="tick" transform="translate(383.16799628942465 0.0 ) ">
                    <line stroke-width="1.0" stroke="rgb(0,0,0)" stroke-opacity="1.0" x2="0.0" y2="6.0">
                    </line>
                    <g transform="translate(0.0 9.0 ) ">
                        <text style="fill:transparent;" text-anchor="middle" dy="0.7em">
                            0.4
                        </text>
                    </g>
                </g>
                <g class="tick" transform="translate(470.4499999999997 0.0 ) ">
                    <line stroke-width="1.0" stroke="rgb(0,0,0)" stroke-opacity="1.0" x2="0.0" y2="6.0">
                    </line>
                    <g transform="translate(0.0 9.0 ) ">
                        <text style="fill:transparent;" text-anchor="middle" dy="0.7em">
                            0.5
                        </text>
                    </g>
                </g>
                <g class="tick" transform="translate(557.7320037105748 0.0 ) ">
                    <line stroke-width="1.0" stroke="rgb(0,0,0)" stroke-opacity="1.0" x2="0.0" y2="6.0">
                    </line>
                    <g transform="translate(0.0 9.0 ) ">
                        <text style="fill:transparent;" text-anchor="middle" dy="0.7em">
                            0.6
                        </text>
                    </g>
                </g>
                <g class="tick" transform="translate(645.0140074211498 0.0 ) ">
                    <line stroke-width="1.0" stroke="rgb(0,0,0)" stroke-opacity="1.0" x2="0.0" y2="6.0">
                    </line>
                    <g transform="translate(0.0 9.0 ) ">
                        <text style="fill:transparent;" text-anchor="middle" dy="0.7em">
                            0.7
                        </text>
                    </g>
                </g>
                <g class="tick" transform="translate(732.2960111317249 0.0 ) ">
                    <line stroke-width="1.0" stroke="rgb(0,0,0)" stroke-opacity="1.0" x2="0.0" y2="6.0">
                    </line>
                    <g transform="translate(0.0 9.0 ) ">
                        <text style="fill:transparent;" text-anchor="middle" dy="0.7em">
                            0.8
                        </text>
                    </g>
                </g>
                <g class="tick" transform="translate(819.5780148422999 0.0 ) ">
                    <line stroke-width="1.0" stroke="rgb(0,0,0)" stroke-opacity="1.0" x2="0.0" y2="6.0">
                    </line>
                    <g transform="translate(0.0 9.0 ) ">
                        <text style="fill:transparent;" text-anchor="middle" dy="0.7em">
                            0.9
                        </text>
                    </g>
                </g>
                <g class="tick" transform="translate(906.860018552875 0.0 ) ">
                    <line stroke-width="1.0" stroke="rgb(0,0,0)" stroke-opacity="1.0" x2="0.0" y2="6.0">
                    </line>
                    <g transform="translate(0.0 9.0 ) ">
                        <text style="fill:transparent;" text-anchor="middle" dy="0.7em">
                            1.0
                        </text>
                    </g>
                </g>
                <line x1="0.0" y1="0.0" x2="940.9" y2="0.0" stroke-width="1.0" stroke="rgb(0,0,0)" stroke-opacity="1.0">
                </line>
            </g>
            <g transform="translate(29.1 0.0 ) " class="plt-axis">
                <g class="tick" transform="translate(0.0 427.0 ) ">
                    <line stroke-width="1.0" stroke="rgb(0,0,0)" stroke-opacity="1.0" x2="-6.0" y2="0.0">
                    </line>
                    <g transform="translate(-9.0 0.0 ) ">
                        <text style="fill:transparent;" text-anchor="end" dy="0.35em">
                            0.0
                        </text>
                    </g>
                </g>
                <g class="tick" transform="translate(0.0 386.27959062883286 ) ">
                    <line stroke-width="1.0" stroke="rgb(0,0,0)" stroke-opacity="1.0" x2="-6.0" y2="0.0">
                    </line>
                    <g transform="translate(-9.0 0.0 ) ">
                        <text style="fill:transparent;" text-anchor="end" dy="0.35em">
                            0.1
                        </text>
                    </g>
                </g>
                <g class="tick" transform="translate(0.0 345.5591812576657 ) ">
                    <line stroke-width="1.0" stroke="rgb(0,0,0)" stroke-opacity="1.0" x2="-6.0" y2="0.0">
                    </line>
                    <g transform="translate(-9.0 0.0 ) ">
                        <text style="fill:transparent;" text-anchor="end" dy="0.35em">
                            0.2
                        </text>
                    </g>
                </g>
                <g class="tick" transform="translate(0.0 304.83877188649853 ) ">
                    <line stroke-width="1.0" stroke="rgb(0,0,0)" stroke-opacity="1.0" x2="-6.0" y2="0.0">
                    </line>
                    <g transform="translate(-9.0 0.0 ) ">
                        <text style="fill:transparent;" text-anchor="end" dy="0.35em">
                            0.3
                        </text>
                    </g>
                </g>
                <g class="tick" transform="translate(0.0 264.11836251533146 ) ">
                    <line stroke-width="1.0" stroke="rgb(0,0,0)" stroke-opacity="1.0" x2="-6.0" y2="0.0">
                    </line>
                    <g transform="translate(-9.0 0.0 ) ">
                        <text style="fill:transparent;" text-anchor="end" dy="0.35em">
                            0.4
                        </text>
                    </g>
                </g>
                <g class="tick" transform="translate(0.0 223.3979531441643 ) ">
                    <line stroke-width="1.0" stroke="rgb(0,0,0)" stroke-opacity="1.0" x2="-6.0" y2="0.0">
                    </line>
                    <g transform="translate(-9.0 0.0 ) ">
                        <text style="fill:transparent;" text-anchor="end" dy="0.35em">
                            0.5
                        </text>
                    </g>
                </g>
                <g class="tick" transform="translate(0.0 182.67754377299715 ) ">
                    <line stroke-width="1.0" stroke="rgb(0,0,0)" stroke-opacity="1.0" x2="-6.0" y2="0.0">
                    </line>
                    <g transform="translate(-9.0 0.0 ) ">
                        <text style="fill:transparent;" text-anchor="end" dy="0.35em">
                            0.6
                        </text>
                    </g>
                </g>
                <g class="tick" transform="translate(0.0 141.95713440183005 ) ">
                    <line stroke-width="1.0" stroke="rgb(0,0,0)" stroke-opacity="1.0" x2="-6.0" y2="0.0">
                    </line>
                    <g transform="translate(-9.0 0.0 ) ">
                        <text style="fill:transparent;" text-anchor="end" dy="0.35em">
                            0.7
                        </text>
                    </g>
                </g>
                <g class="tick" transform="translate(0.0 101.23672503066291 ) ">
                    <line stroke-width="1.0" stroke="rgb(0,0,0)" stroke-opacity="1.0" x2="-6.0" y2="0.0">
                    </line>
                    <g transform="translate(-9.0 0.0 ) ">
                        <text style="fill:transparent;" text-anchor="end" dy="0.35em">
                            0.8
                        </text>
                    </g>
                </g>
                <g class="tick" transform="translate(0.0 60.516315659495774 ) ">
                    <line stroke-width="1.0" stroke="rgb(0,0,0)" stroke-opacity="1.0" x2="-6.0" y2="0.0">
                    </line>
                    <g transform="translate(-9.0 0.0 ) ">
                        <text style="fill:transparent;" text-anchor="end" dy="0.35em">
                            0.9
                        </text>
                    </g>
                </g>
                <g class="tick" transform="translate(0.0 19.795906288328638 ) ">
                    <line stroke-width="1.0" stroke="rgb(0,0,0)" stroke-opacity="1.0" x2="-6.0" y2="0.0">
                    </line>
                    <g transform="translate(-9.0 0.0 ) ">
                        <text style="fill:transparent;" text-anchor="end" dy="0.35em">
                            1.0
                        </text>
                    </g>
                </g>
                <line x1="0.0" y1="0.0" x2="0.0" y2="427.0" stroke-width="1.0" stroke="rgb(0,0,0)" stroke-opacity="1.0">
                </line>
            </g>
            <g transform="translate(29.1 0.0 ) " clip-path="url(#yEzZZ3)" clip-bounds-jfx="[rect (0.0, 0.0), (940.9, 427.0)]">
                <defs>
                    <clipPath id="yEzZZ3">
                        <rect x="0.0" y="0.0" width="940.9" height="427.0">
                        </rect>
                    </clipPath>
                </defs>
                <g>
                    <path d="M42.768181818181816 425.9840237104663 L42.768181818181816 425.9840237104663 L51.49638218923933 424.13687309602255 L60.22458256029684 421.76494140799736 L68.95278293135434 418.9851434586756 L77.68098330241185 415.8698453248517 L86.40918367346936 412.47141394882806 L95.13738404452687 408.83104285749926 L103.86558441558438 404.98284395336947 L112.59378478664189 400.95604120371485 L121.32198515769937 396.7762651824818 L130.05018552875688 392.46637124923626 L138.7783858998144 388.04698405300064 L147.50658627087188 383.5368748210732 L156.23478664192942 378.9532314154659 L164.96298701298693 374.31185689301265 L173.69118738404444 369.6273188518468 L182.41938775510195 364.9130639951394 L191.14758812615946 360.18150756250657 L199.875788497217 355.4441042625026 L208.6039888682745 350.7114053758408 L217.33218923933202 345.9931053859708 L226.06038961038954 341.2980805948391 L234.78858998144705 336.63442155350515 L243.51679035250456 332.0094606901437 L252.24499072356207 327.4297961944335 L260.97319109461955 322.90131297982936 L269.7013914656771 318.4292013686163 L278.4295918367346 314.0179740118403 L287.1577922077921 309.67148145537317 L295.88599257884965 305.3929266861585 L304.61419294990714 301.1848789331848 L313.3423933209647 297.04928695164324 L322.07059369202216 292.9874919829289 L330.7987940630797 289.00024055531554 L339.52699443413724 285.087697268556 L348.2551948051947 281.2494576890242 L356.98339517625226 277.4845614693458 L365.71159554730974 273.79150579698467 L374.4397959183673 270.16825926940527 L383.16799628942476 266.6122762887378 L391.8961966604823 263.1205120659933 L400.62439703153984 259.6894383235316 L409.3525974025973 256.31505978444653 L418.08079777365487 252.99293153863422 L426.80899814471235 249.71817737741353 L435.5371985157699 246.48550919155028 L444.2653988868274 243.28924753132614 L452.9935992578849 240.12334343180515 L461.72179962894245 236.98140161163326 L470.4499999999999 233.85670515951628 L479.1782003710574 230.74224182891555 L487.90640074211495 227.63073206845675 L496.63460111317244 224.5146589230369 L505.36280148423 221.38629994862237 L514.0910018552875 218.23776129224302 L522.8192022263449 215.0610140976908 L531.5474025974024 211.84793340692045 L540.27560296846 208.59033973711954 L549.0038033395175 205.28004352385622 L557.7320037105751 201.90889263163493 L566.4602040816326 198.46882314457667 L575.1884044526901 194.95191366180828 L583.9166048237475 191.3504433344807 L592.6448051948051 187.6569538941556 L601.3730055658626 183.8643159355928 L610.1012059369201 179.96579973075285 L618.8294063079777 175.95515086509587 L627.5576066790352 171.8266710020168 L636.2858070500927 167.57530409651406 L645.0140074211502 163.19672839494837 L653.7422077922078 158.6874545740123 L662.4704081632652 154.044930388814 L671.1986085343227 149.26765221727447 L679.9268089053803 144.35528390586302 L688.6550092764378 139.3087833400519 L697.3832096474953 134.13053718176258 L706.1114100185528 128.82450423551558 L714.8396103896104 123.39636792498288 L723.5678107606678 117.85369838218924 L732.2960111317253 112.20612467271889 L741.0242115027829 106.46551770196442 L749.7524118738404 100.6461843697166 L758.4806122448979 94.76507356323577 L767.2088126159555 88.84199460238415 L775.937012987013 82.89984877443169 L784.6652133580704 76.96487462079182 L793.3934137291279 71.06690766319554 L802.1216141001855 65.2396552826878 L810.849814471243 59.52098749133421 L819.5780148423005 53.95324436365877 L828.3062152133581 48.58356092261471 L837.0344155844156 43.46421030331783 L845.762615955473 38.65296604685187 L854.4908163265305 34.213484406207044 L863.2190166975881 30.21570757682639 L871.9472170686456 26.73628879533237 L880.6754174397031 23.859040281785326 L889.4036178107607 21.67540503330082 L898.1318181818182 20.284953510022206 L898.1318181818182 427.0 L889.4036178107607 427.0 L880.6754174397031 427.0 L871.9472170686456 427.0 L863.2190166975881 427.0 L854.4908163265305 427.0 L845.762615955473 427.0 L837.0344155844156 427.0 L828.3062152133581 427.0 L819.5780148423005 427.0 L810.849814471243 427.0 L802.1216141001855 427.0 L793.3934137291279 427.0 L784.6652133580704 427.0 L775.937012987013 427.0 L767.2088126159555 427.0 L758.4806122448979 427.0 L749.7524118738404 427.0 L741.0242115027829 427.0 L732.2960111317253 427.0 L723.5678107606678 427.0 L714.8396103896104 427.0 L706.1114100185528 427.0 L697.3832096474953 427.0 L688.6550092764378 427.0 L679.9268089053803 427.0 L671.1986085343227 427.0 L662.4704081632652 427.0 L653.7422077922078 427.0 L645.0140074211502 427.0 L636.2858070500927 427.0 L627.5576066790352 427.0 L618.8294063079777 427.0 L610.1012059369201 427.0 L601.3730055658626 427.0 L592.6448051948051 427.0 L583.9166048237475 427.0 L575.1884044526901 427.0 L566.4602040816326 427.0 L557.7320037105751 427.0 L549.0038033395175 427.0 L540.27560296846 427.0 L531.5474025974024 427.0 L522.8192022263449 427.0 L514.0910018552875 427.0 L505.36280148423 427.0 L496.63460111317244 427.0 L487.90640074211495 427.0 L479.1782003710574 427.0 L470.4499999999999 427.0 L461.72179962894245 427.0 L452.9935992578849 427.0 L444.2653988868274 427.0 L435.5371985157699 427.0 L426.80899814471235 427.0 L418.08079777365487 427.0 L409.3525974025973 427.0 L400.62439703153984 427.0 L391.8961966604823 427.0 L383.16799628942476 427.0 L374.4397959183673 427.0 L365.71159554730974 427.0 L356.98339517625226 427.0 L348.2551948051947 427.0 L339.52699443413724 427.0 L330.7987940630797 427.0 L322.07059369202216 427.0 L313.3423933209647 427.0 L304.61419294990714 427.0 L295.88599257884965 427.0 L287.1577922077921 427.0 L278.4295918367346 427.0 L269.7013914656771 427.0 L260.97319109461955 427.0 L252.24499072356207 427.0 L243.51679035250456 427.0 L234.78858998144705 427.0 L226.06038961038954 427.0 L217.33218923933202 427.0 L208.6039888682745 427.0 L199.875788497217 427.0 L191.14758812615946 427.0 L182.41938775510195 427.0 L173.69118738404444 427.0 L164.96298701298693 427.0 L156.23478664192942 427.0 L147.50658627087188 427.0 L138.7783858998144 427.0 L130.05018552875688 427.0 L121.32198515769937 427.0 L112.59378478664189 427.0 L103.86558441558438 427.0 L95.13738404452687 427.0 L86.40918367346936 427.0 L77.68098330241185 427.0 L68.95278293135434 427.0 L60.22458256029684 427.0 L51.49638218923933 427.0 L42.768181818181816 427.0 Z" fill="rgb(210,255,210)" stroke-width="1.0" fill-opacity="1.0">
                    </path>
                </g>
                <g>
                    <path d="M42.768181818181816 425.9840237104663 L42.768181818181816 425.9840237104663 L51.49638218923933 424.13687309602255 L60.22458256029684 421.76494140799736 L68.95278293135434 418.9851434586756 L77.68098330241185 415.8698453248517 L86.40918367346936 412.47141394882806 L95.13738404452687 408.83104285749926 L103.86558441558438 404.98284395336947 L112.59378478664189 400.95604120371485 L121.32198515769937 396.7762651824818 L130.05018552875688 392.46637124923626 L138.7783858998144 388.04698405300064 L147.50658627087188 383.5368748210732 L156.23478664192942 378.9532314154659 L164.96298701298693 374.31185689301265 L173.69118738404444 369.6273188518468 L182.41938775510195 364.9130639951394 L191.14758812615946 360.18150756250657 L199.875788497217 355.4441042625026 L208.6039888682745 350.7114053758408 L217.33218923933202 345.9931053859708 L226.06038961038954 341.2980805948391 L234.78858998144705 336.63442155350515 L243.51679035250456 332.0094606901437 L252.24499072356207 327.4297961944335 L260.97319109461955 322.90131297982936 L269.7013914656771 318.4292013686163 L278.4295918367346 314.0179740118403 L287.1577922077921 309.67148145537317 L295.88599257884965 305.3929266861585 L304.61419294990714 301.1848789331848 L313.3423933209647 297.04928695164324 L322.07059369202216 292.9874919829289 L330.7987940630797 289.00024055531554 L339.52699443413724 285.087697268556 L348.2551948051947 281.2494576890242 L356.98339517625226 277.4845614693458 L365.71159554730974 273.79150579698467 L374.4397959183673 270.16825926940527 L383.16799628942476 266.6122762887378 L391.8961966604823 263.1205120659933 L400.62439703153984 259.6894383235316 L409.3525974025973 256.31505978444653 L418.08079777365487 252.99293153863422 L426.80899814471235 249.71817737741353 L435.5371985157699 246.48550919155028 L444.2653988868274 243.28924753132614 L452.9935992578849 240.12334343180515 L461.72179962894245 236.98140161163326 L470.4499999999999 233.85670515951628 L479.1782003710574 230.74224182891555 L487.90640074211495 227.63073206845675 L496.63460111317244 224.5146589230369 L505.36280148423 221.38629994862237 L514.0910018552875 218.23776129224302 L522.8192022263449 215.0610140976908 L531.5474025974024 211.84793340692045 L540.27560296846 208.59033973711954 L549.0038033395175 205.28004352385622 L557.7320037105751 201.90889263163493 L566.4602040816326 198.46882314457667 L575.1884044526901 194.95191366180828 L583.9166048237475 191.3504433344807 L592.6448051948051 187.6569538941556 L601.3730055658626 183.8643159355928 L610.1012059369201 179.96579973075285 L618.8294063079777 175.95515086509587 L627.5576066790352 171.8266710020168 L636.2858070500927 167.57530409651406 L645.0140074211502 163.19672839494837 L653.7422077922078 158.6874545740123 L662.4704081632652 154.044930388814 L671.1986085343227 149.26765221727447 L679.9268089053803 144.35528390586302 L688.6550092764378 139.3087833400519 L697.3832096474953 134.13053718176258 L706.1114100185528 128.82450423551558 L714.8396103896104 123.39636792498288 L723.5678107606678 117.85369838218924 L732.2960111317253 112.20612467271889 L741.0242115027829 106.46551770196442 L749.7524118738404 100.6461843697166 L758.4806122448979 94.76507356323577 L767.2088126159555 88.84199460238415 L775.937012987013 82.89984877443169 L784.6652133580704 76.96487462079182 L793.3934137291279 71.06690766319554 L802.1216141001855 65.2396552826878 L810.849814471243 59.52098749133421 L819.5780148423005 53.95324436365877 L828.3062152133581 48.58356092261471 L837.0344155844156 43.46421030331783 L845.762615955473 38.65296604685187 L854.4908163265305 34.213484406207044 L863.2190166975881 30.21570757682639 L871.9472170686456 26.73628879533237 L880.6754174397031 23.859040281785326 L889.4036178107607 21.67540503330082 L898.1318181818182 20.284953510022206 " fill="none" stroke-width="4.0" stroke="rgb(0,128,0)" stroke-opacity="1.0">
                    </path>
                </g>
            </g>
        </g>
        <g class="plt-axis">
            <g transform="translate(4.0 247.5 ) rotate(-90.0 ) " class="plt-axis-title">
                <text text-anchor="middle" dy="0.7em">
                    density
                </text>
            </g>
        </g>
        <g class="plt-axis">
            <g transform="translate(519.55 496.0 ) " class="plt-axis-title">
                <text text-anchor="middle">
                    x
                </text>
            </g>
        </g>
    </g>
</svg>