<svg xmlns="http://www.w3.org/2000/svg" class="plt-container" width="1000.0" height="500.0">
    <style type="text/css">
        .plt-container {
        font-family: "Lucida Grande", sans-serif;
        cursor: crosshair;
        user-select: none;
        -webkit-user-select: none;
        -moz-user-select: none;
        -ms-user-select: none;
        }
        .plt-backdrop {
        fill: white;
        }
        .plt-transparent .plt-backdrop {
        visibility: hidden;
        }
        text {
        font-size: 12px;
        fill: #3d3d3d;
        }
        .plt-data-tooltip text {
        font-size: 12px;
        }
        .plt-axis-tooltip text {
        font-size: 10px;
        }
        .plt-axis line {
        shape-rendering: crispedges;
        }
        .plt-plot-title {

        font-size: 16.0px;
        font-weight: bold;
        }
        .plt-axis .tick text {

        font-size: 10.0px;
        }
        .plt-axis.small-tick-font .tick text {

        font-size: 8.0px;
        }
        .plt-axis-title text {

        font-size: 12.0px;
        }
        .plt_legend .legend-title text {

        font-size: 12.0px;
        font-weight: bold;
        }
        .plt_legend text {

        font-size: 10.0px;
        }

    </style>
    <rect class="plt-backdrop" width="100%" height="100%">
    </rect>
    <g class="plt-plot">
        <g transform="translate(20.0 10.0 ) ">
            <g transform="translate(29.1 451.0 ) " class="plt-axis">
                <g class="tick" transform="translate(40.28763636363636 0.0 ) ">
                    <line stroke-width="1.0" stroke="rgb(0,0,0)" stroke-opacity="1.0" x2="0.0" y2="6.0">
                    </line>
                    <g transform="translate(0.0 9.0 ) ">
                        <text style="fill:transparent;" text-anchor="middle" dy="0.7em">
                            0.0
                        </text>
                    </g>
                </g>
                <g class="tick" transform="translate(120.86290909090908 0.0 ) ">
                    <line stroke-width="1.0" stroke="rgb(0,0,0)" stroke-opacity="1.0" x2="0.0" y2="6.0">
                    </line>
                    <g transform="translate(0.0 9.0 ) ">
                        <text style="fill:transparent;" text-anchor="middle" dy="0.7em">
                            0.1
                        </text>
                    </g>
                </g>
                <g class="tick" transform="translate(201.4381818181818 0.0 ) ">
                    <line stroke-width="1.0" stroke="rgb(0,0,0)" stroke-opacity="1.0" x2="0.0" y2="6.0">
                    </line>
                    <g transform="translate(0.0 9.0 ) ">
                        <text style="fill:transparent;" text-anchor="middle" dy="0.7em">
                            0.2
                        </text>
                    </g>
                </g>
                <g class="tick" transform="translate(282.0134545454545 0.0 ) ">
                    <line stroke-width="1.0" stroke="rgb(0,0,0)" stroke-opacity="1.0" x2="0.0" y2="6.0">
                    </line>
                    <g transform="translate(0.0 9.0 ) ">
                        <text style="fill:transparent;" text-anchor="middle" dy="0.7em">
                            0.3
                        </text>
                    </g>
                </g>
                <g class="tick" transform="translate(362.5887272727272 0.0 ) ">
                    <line stroke-width="1.0" stroke="rgb(0,0,0)" stroke-opacity="1.0" x2="0.0" y2="6.0">
                    </line>
                    <g transform="translate(0.0 9.0 ) ">
                        <text style="fill:transparent;" text-anchor="middle" dy="0.7em">
                            0.4
                        </text>
                    </g>
                </g>
                <g class="tick" transform="translate(443.16399999999993 0.0 ) ">
                    <line stroke-width="1.0" stroke="rgb(0,0,0)" stroke-opacity="1.0" x2="0.0" y2="6.0">
                    </line>
                    <g transform="translate(0.0 9.0 ) ">
                        <text style="fill:transparent;" text-anchor="middle" dy="0.7em">
                            0.5
                        </text>
                    </g>
                </g>
                <g class="tick" transform="translate(523.7392727272727 0.0 ) ">
                    <line stroke-width="1.0" stroke="rgb(0,0,0)" stroke-opacity="1.0" x2="0.0" y2="6.0">
                    </line>
                    <g transform="translate(0.0 9.0 ) ">
                        <text style="fill:transparent;" text-anchor="middle" dy="0.7em">
                            0.6
                        </text>
                    </g>
                </g>
                <g class="tick" transform="translate(604.3145454545453 0.0 ) ">
                    <line stroke-width="1.0" stroke="rgb(0,0,0)" stroke-opacity="1.0" x2="0.0" y2="6.0">
                    </line>
                    <g transform="translate(0.0 9.0 ) ">
                        <text style="fill:transparent;" text-anchor="middle" dy="0.7em">
                            0.7
                        </text>
                    </g>
                </g>
                <g class="tick" transform="translate(684.889818181818 0.0 ) ">
                    <line stroke-width="1.0" stroke="rgb(0,0,0)" stroke-opacity="1.0" x2="0.0" y2="6.0">
                    </line>
                    <g transform="translate(0.0 9.0 ) ">
                        <text style="fill:transparent;" text-anchor="middle" dy="0.7em">
                            0.8
                        </text>
                    </g>
                </g>
                <g class="tick" transform="translate(765.4650909090907 0.0 ) ">
                    <line stroke-width="1.0" stroke="rgb(0,0,0)" stroke-opacity="1.0" x2="0.0" y2="6.0">
                    </line>
                    <g transform="translate(0.0 9.0 ) ">
                        <text style="fill:transparent;" text-anchor="middle" dy="0.7em">
                            0.9
                        </text>
                    </g>
                </g>
                <g class="tick" transform="translate(846.0403636363634 0.0 ) ">
                    <line stroke-width="1.0" stroke="rgb(0,0,0)" stroke-opacity="1.0" x2="0.0" y2="6.0">
                    </line>
                    <g transform="translate(0.0 9.0 ) ">
                        <text style="fill:transparent;" text-anchor="middle" dy="0.7em">
                            1.0
                        </text>
                    </g>
                </g>
                <line x1="0.0" y1="0.0" x2="886.328" y2="0.0" stroke-width="1.0" stroke="rgb(0,0,0)" stroke-opacity="1.0">
                </line>
            </g>
            <g transform="translate(29.1 0.0 ) " class="plt-axis">
                <g class="tick" transform="translate(0.0 451.0 ) ">
                    <line stroke-width="1.0" stroke="rgb(0,0,0)" stroke-opacity="1.0" x2="-6.0" y2="0.0">
                    </line>
                    <g transform="translate(-9.0 0.0 ) ">
                        <text style="fill:transparent;" text-anchor="end" dy="0.35em">
                            0.0
                        </text>
                    </g>
                </g>
                <g class="tick" transform="translate(0.0 420.6835671303607 ) ">
                    <line stroke-width="1.0" stroke="rgb(0,0,0)" stroke-opacity="1.0" x2="-6.0" y2="0.0">
                    </line>
                    <g transform="translate(-9.0 0.0 ) ">
                        <text style="fill:transparent;" text-anchor="end" dy="0.35em">
                            0.1
                        </text>
                    </g>
                </g>
                <g class="tick" transform="translate(0.0 390.36713426072146 ) ">
                    <line stroke-width="1.0" stroke="rgb(0,0,0)" stroke-opacity="1.0" x2="-6.0" y2="0.0">
                    </line>
                    <g transform="translate(-9.0 0.0 ) ">
                        <text style="fill:transparent;" text-anchor="end" dy="0.35em">
                            0.2
                        </text>
                    </g>
                </g>
                <g class="tick" transform="translate(0.0 360.05070139108216 ) ">
                    <line stroke-width="1.0" stroke="rgb(0,0,0)" stroke-opacity="1.0" x2="-6.0" y2="0.0">
                    </line>
                    <g transform="translate(-9.0 0.0 ) ">
                        <text style="fill:transparent;" text-anchor="end" dy="0.35em">
                            0.3
                        </text>
                    </g>
                </g>
                <g class="tick" transform="translate(0.0 329.7342685214429 ) ">
                    <line stroke-width="1.0" stroke="rgb(0,0,0)" stroke-opacity="1.0" x2="-6.0" y2="0.0">
                    </line>
                    <g transform="translate(-9.0 0.0 ) ">
                        <text style="fill:transparent;" text-anchor="end" dy="0.35em">
                            0.4
                        </text>
                    </g>
                </g>
                <g class="tick" transform="translate(0.0 299.4178356518036 ) ">
                    <line stroke-width="1.0" stroke="rgb(0,0,0)" stroke-opacity="1.0" x2="-6.0" y2="0.0">
                    </line>
                    <g transform="translate(-9.0 0.0 ) ">
                        <text style="fill:transparent;" text-anchor="end" dy="0.35em">
                            0.5
                        </text>
                    </g>
                </g>
                <g class="tick" transform="translate(0.0 269.1014027821643 ) ">
                    <line stroke-width="1.0" stroke="rgb(0,0,0)" stroke-opacity="1.0" x2="-6.0" y2="0.0">
                    </line>
                    <g transform="translate(-9.0 0.0 ) ">
                        <text style="fill:transparent;" text-anchor="end" dy="0.35em">
                            0.6
                        </text>
                    </g>
                </g>
                <g class="tick" transform="translate(0.0 238.78496991252507 ) ">
                    <line stroke-width="1.0" stroke="rgb(0,0,0)" stroke-opacity="1.0" x2="-6.0" y2="0.0">
                    </line>
                    <g transform="translate(-9.0 0.0 ) ">
                        <text style="fill:transparent;" text-anchor="end" dy="0.35em">
                            0.7
                        </text>
                    </g>
                </g>
                <g class="tick" transform="translate(0.0 208.4685370428858 ) ">
                    <line stroke-width="1.0" stroke="rgb(0,0,0)" stroke-opacity="1.0" x2="-6.0" y2="0.0">
                    </line>
                    <g transform="translate(-9.0 0.0 ) ">
                        <text style="fill:transparent;" text-anchor="end" dy="0.35em">
                            0.8
                        </text>
                    </g>
                </g>
                <g class="tick" transform="translate(0.0 178.15210417324653 ) ">
                    <line stroke-width="1.0" stroke="rgb(0,0,0)" stroke-opacity="1.0" x2="-6.0" y2="0.0">
                    </line>
                    <g transform="translate(-9.0 0.0 ) ">
                        <text style="fill:transparent;" text-anchor="end" dy="0.35em">
                            0.9
                        </text>
                    </g>
                </g>
                <g class="tick" transform="translate(0.0 147.83567130360728 ) ">
                    <line stroke-width="1.0" stroke="rgb(0,0,0)" stroke-opacity="1.0" x2="-6.0" y2="0.0">
                    </line>
                    <g transform="translate(-9.0 0.0 ) ">
                        <text style="fill:transparent;" text-anchor="end" dy="0.35em">
                            1.0
                        </text>
                    </g>
                </g>
                <g class="tick" transform="translate(0.0 117.51923843396798 ) ">
                    <line stroke-width="1.0" stroke="rgb(0,0,0)" stroke-opacity="1.0" x2="-6.0" y2="0.0">
                    </line>
                    <g transform="translate(-9.0 0.0 ) ">
                        <text style="fill:transparent;" text-anchor="end" dy="0.35em">
                            1.1
                        </text>
                    </g>
                </g>
                <g class="tick" transform="translate(0.0 87.20280556432868 ) ">
                    <line stroke-width="1.0" stroke="rgb(0,0,0)" stroke-opacity="1.0" x2="-6.0" y2="0.0">
                    </line>
                    <g transform="translate(-9.0 0.0 ) ">
                        <text style="fill:transparent;" text-anchor="end" dy="0.35em">
                            1.2
                        </text>
                    </g>
                </g>
                <g class="tick" transform="translate(0.0 56.886372694689385 ) ">
                    <line stroke-width="1.0" stroke="rgb(0,0,0)" stroke-opacity="1.0" x2="-6.0" y2="0.0">
                    </line>
                    <g transform="translate(-9.0 0.0 ) ">
                        <text style="fill:transparent;" text-anchor="end" dy="0.35em">
                            1.3
                        </text>
                    </g>
                </g>
                <g class="tick" transform="translate(0.0 26.569939825050085 ) ">
                    <line stroke-width="1.0" stroke="rgb(0,0,0)" stroke-opacity="1.0" x2="-6.0" y2="0.0">
                    </line>
                    <g transform="translate(-9.0 0.0 ) ">
                        <text style="fill:transparent;" text-anchor="end" dy="0.35em">
                            1.4
                        </text>
                    </g>
                </g>
                <line x1="0.0" y1="0.0" x2="0.0" y2="451.0" stroke-width="1.0" stroke="rgb(0,0,0)" stroke-opacity="1.0">
                </line>
            </g>
            <g transform="translate(29.1 0.0 ) " clip-path="url(#cerav8)" clip-bounds-jfx="[rect (0.0, 0.0), (886.328, 451.0)]">
                <defs>
                    <clipPath id="cerav8">
                        <rect x="0.0" y="0.0" width="886.328" height="451.0">
                        </rect>
                    </clipPath>
                </defs>
                <g>
                    <path d="M40.28763636363636 351.5415813541139 L40.28763636363636 351.5415813541139 L41.86445187689023 347.70579291642036 L43.4412673901441 343.8227311079718 L45.01808290339797 339.8950411899087 L46.59489841665184 335.92534803617673 L48.17171392990571 331.9162564457887 L49.748529443159576 327.8703530091543 L51.325344956413446 323.7902093479664 L52.90216046966731 319.67838651894374 L54.478975982921185 315.53744034841316 L56.05579149617505 311.3699274478331 L57.632607009428924 307.17841165023117 L59.209422522682786 302.9654706043974 L60.78623803593666 298.7337022671283 L62.363053549190525 294.48573104442346 L63.939869062444394 290.22421334874906 L65.51668457569826 285.95184236175044 L67.09350008895214 281.67135181889705 L68.670315602206 277.38551866357216 L70.24713111545987 273.09716445238416 L71.82394662871374 268.8091554298568 L73.40076214196762 264.5244012281446 L74.97757765522148 260.245852184782 L76.55439316847534 255.97649530811938 L78.13120868172922 251.71934895465185 L79.7080241949831 247.47745631413326 L81.28483970823696 243.25387782670262 L82.86165522149082 239.05168268010505 L84.4384707347447 234.873939554497 L86.01528624799856 230.72370679626755 L87.59210176125242 226.60402221142795 L89.1689172745063 222.5178926725057 L90.74573278776018 218.4682837312016 L92.32254830101404 214.4581094224824 L93.8993638142679 210.49022243429758 L95.47617932752178 206.5674048018921 L97.05299484077565 202.69235926646797 L98.62981035402952 198.86770141614826 L100.20662586728338 195.0959527030925 L101.78344138053725 191.37953440507647 L103.36025689379113 187.72076257341513 L104.93707240704498 184.12184398303214 L106.51388792029886 180.5848730749114 L108.09070343355273 177.11182985673616 L109.66751894680661 173.704578705767 L111.24433446006046 170.36486799774764 L112.82114997331433 167.0943304691953 L114.39796548656821 163.89448420646704 L115.97478099982209 160.76673414506718 L117.55159651307594 157.71237395584353 L119.12841202632981 154.73258819181416 L120.70522753958369 151.82845457005095 L122.28204305283757 149.00094626678464 L123.85885856609141 146.25093411147708 L125.43567407934529 143.57918857535537 L127.01248959259917 140.9863814628352 L128.58930510585304 138.47308722918746 L130.1661206191069 136.0397838641797 L131.74293613236077 133.68685329955912 L133.31975164561464 131.41458131707265 L134.8965671588685 129.22315695266718 L136.47338267212237 127.11267141189961 L138.05019818537625 125.08311652972242 L139.62701369863012 123.13438282606842 L141.20382921188397 121.26625722455987 L142.78064472513785 119.47842051660251 L144.35746023839172 117.77044466606407 L145.9342757516456 116.14179006023801 L147.51109126489945 114.59180282131229 L149.08790677815333 113.11971229833426 L150.6647222914072 111.72462886291072 L152.24153780466108 110.4055421325566 L153.81835331791493 109.1613197437344 L155.3951688311688 107.99070679184126 L156.97198434442268 106.89232604867351 L158.54879985767653 105.86467905836605 L160.1256153709304 104.90614820143736 L161.70243088418428 104.01499980302214 L163.27924639743816 103.18938834624572 L164.856061910692 102.42736183526904 L166.43287742394588 101.72686833412581 L168.00969293719976 101.08576368961894 L169.5865084504536 100.50182042652017 L171.16332396370748 99.97273778393969 L172.74013947696136 99.49615284247534 L174.31695499021524 99.06965267195795 L175.89377050346909 98.69078741147513 L177.47058601672296 98.35708417542025 L179.04740152997684 98.06606166294006 L180.62421704323071 97.81524533319441 L182.20103255648456 97.60218299546989 L183.77784806973844 97.42446065195298 L185.35466358299232 97.27971842172843 L186.9314790962462 97.16566636793357 L188.50829460950004 97.08010004521077 L190.08511012275392 97.0209155831605 L191.6619256360078 96.98612412217244 L193.23874114926164 96.9738654215439 L194.81555666251552 96.98242046597954 L196.3923721757694 97.01022290546132 L197.96918768902327 97.05586917490018 L199.54600320227712 97.11812715369996 L201.122818715531 97.1959432417367 L202.69963422878487 97.28844774617266 L204.27644974203875 97.39495849372088 L205.8532652552926 97.5149826044867 L207.43008076854647 97.64821638656429 L209.00689628180035 97.79454333358626 L210.58371179505423 97.95403023271615 L212.16052730830808 98.126921413952 L213.73734282156195 98.31363119668964 L215.31415833481583 98.51473461219143 L216.8909738480697 98.7309565039335 L218.46778936132355 98.96315912848587 L220.04460487457743 99.21232839893156 L221.6214203878313 99.47955893070707 L223.19823590108516 99.76603806395502 L224.77505141433903 100.0730290492761 L226.3518669275929 100.40185359340762 L227.92868244084679 100.75387396726711 L229.50549795410063 101.13047488305375 L231.0823134673545 101.53304534672299 L232.6591289806084 101.96296069005132 L234.23594449386226 102.42156498046552 L235.8127600071161 102.91015399850716 L237.38957552037 103.42995896143896 L238.96639103362386 103.98213115827366 L240.54320654687774 104.56772764576914 L242.1200220601316 105.1876981374516 L243.69683757338547 105.84287319937454 L245.27365308663934 106.53395384618716 L246.85046859989322 107.26150261088293 L248.42728411314707 108.0259361410616 L250.00409962640094 108.82751935372693 L251.58091513965482 109.66636116108674 L253.15773065290867 110.54241175991177 L254.73454616616254 111.45546145966159 L256.31136167941645 112.40514100698914 L257.8881771926703 113.39092334969348 L259.46499270592415 114.41212676896913 L261.04180821917805 115.46791929766562 L262.6186237324319 116.55732433204133 L264.1954392456858 117.67922733653745 L265.77225475893965 118.83238353529111 L267.3490702721935 120.01542647950146 L268.9258857854474 121.22687737750374 L270.50270129870125 122.46515507300876 L272.0795168119551 123.72858655778634 L273.656332325209 125.01541790651135 L275.23314783846286 126.32382552435354 L276.8099633517167 127.65192760154974 L278.3867788649706 128.99779567367216 L279.96359437822446 130.3594661912535 L281.54040989147836 131.73495200785413 L283.1172254047322 133.12225370157734 L284.69404091798606 134.5193706505354 L286.27085643123996 135.92431178935527 L287.8476719444938 137.33510597908383 L289.42448745774766 138.74981192964526 L291.00130297100156 140.16652761900104 L292.5781184842554 141.58339915978382 L294.1549339975093 142.9986290691421 L295.73174951076317 144.41048390355917 L297.308565024017 145.81730122567484 L298.88538053727086 147.21749587551398 L300.46219605052477 148.6095655240606 L302.0390115637786 149.99209549201396 L303.6158270770325 151.36376282235767 L305.19264259028637 152.72333960000418 L306.7694581035402 154.06969551740667 L308.3462736167941 155.40179968996267 L309.92308913004797 156.71872173009524 L311.4999046433018 158.01963209399247 L313.0767201565557 159.30380171984126 L314.65353566980957 160.57060098087436 L316.2303511830634 161.8194979815417 L317.8071666963173 163.05005622862262 L319.3839822095712 164.26193171404395 L320.9607977228251 165.45486944878138 L322.5376132360789 166.62869949128793 L324.1144287493328 167.78333251633615 L325.6912442625867 168.91875497269768 L327.2680597758405 170.0350238801896 L328.8448752890944 171.13226131790526 L330.4216908023483 172.2106486568669 L331.9985063156021 173.2704205905847 L333.57532182885603 174.3118590175564 L335.1521373421099 175.33528682924037 L336.72895285536373 176.34106165657766 L338.30576836861763 177.32956962712478 L339.8825838818715 178.30121918359293 L341.45939939512533 179.2564350128776 L343.03621490837924 180.19565213298887 L344.6130304216331 181.1193101830841 L346.18984593488693 182.02784795957575 L347.76666144814084 182.921698238903 L349.3434769613947 183.80128292469198 L350.9202924746486 184.667008554718 L352.49710798790244 185.5192621997009 L354.0739235011563 186.35840778322068 L355.6507390144102 187.1847828489171 L357.22755452766404 187.99869579750413 L358.8043700409179 188.80042361303686 L360.3811855541718 189.59021009384247 L361.95800106742564 190.3682645999899 L363.53481658067955 191.13476132489734 L365.1116320939334 191.88983909453117 L366.68844760718724 192.6336016931415 L368.26526312044115 193.36611870972206 L369.842078633695 194.08742689456977 L371.41889414694884 194.79753201000193 L372.99570966020275 195.49641115432289 L374.5725251734566 196.18401553218476 L376.14934068671045 196.86027363953957 L377.72615619996435 197.5250948252274 L379.3029717132182 198.17837318619792 L380.8797872264721 198.8199917473893 L382.45660273972595 199.44982687257294 L384.0334182529798 200.06775284700763 L385.6102337662337 200.67364656853505 L387.18704927948755 201.26739227947164 L388.7638647927414 201.84888626816647 L390.3406803059953 202.41804146657626 L391.91749581924915 202.9747918681158 L393.49431133250306 203.51909668905014 L395.0711268457569 204.05094419696093 L396.64794235901076 204.57035513090494 L398.22475787226466 205.0773856403052 L399.8015733855185 205.57212967313362 L401.37838889877236 206.05472074904756 L402.95520441202626 206.52533305935586 L404.5320199252801 206.9841818426969 L406.10883543853396 207.43152299465905 L407.68565095178786 207.86765187890876 L409.2624664650417 208.29290131828083 L410.8392819782956 208.70763875634356 L412.41609749154946 209.11226259216772 L413.9929130048033 209.50719770427588 L415.5697285180572 209.8928901931848 L417.14654403131107 210.26980138554913 L418.7233595445649 210.63840115637683 L420.3001750578188 210.99916063899218 L421.87699057107267 211.35254440499304 L423.4538060843266 211.69900220801458 L425.0306215975804 212.03896039571114 L426.60743711083427 212.37281310376034 L428.1842526240882 212.7009133530982 L429.761068137342 213.0235641775911 L431.33788365059587 213.3410099133953 L432.9146991638498 213.6534277829682 L434.4915146771036 213.96091990674708 L436.06833019035747 214.2635058726503 L437.6451457036114 214.56111598931068 L439.2219612168652 214.85358534195544 L440.79877673011913 215.14064876087411 L442.375592243373 215.42193680157752 L443.9524077566268 215.69697282328454 L445.5292232698807 215.96517123772122 L447.1060387831346 216.22583698498042 L448.6828542963885 216.47816627632287 L450.25966980964233 216.72124862618986 L451.8364853228961 216.95407017803092 L453.4133008361501 217.17551831004198 L454.990116349404 217.38438748904034 L456.5669318626578 217.57938632321887 L458.14374737591163 217.75914574752136 L459.72056288916554 217.92222825952877 L461.29737840241944 218.06713810954196 L462.8741939156733 218.1923323351383 L464.4510094289271 218.29623251946725 L466.027824942181 218.377237142974 L467.60464045543495 218.4337343906328 L469.18145596868874 218.46411527183068 L470.7582714819426 218.4667869060229 L472.3350869951965 218.4401858266167 L473.9119025084504 218.38279115608023 L475.48871802170424 218.29313750810982 L477.06553353495804 218.16982747728412 L478.64234904821194 218.01154358309654 L480.2191645614659 217.81705954309797 L481.7959800747197 217.5852507593357 L483.37279558797354 217.31510391270135 L484.94961110122745 217.00572557156121 L486.52642661448135 216.6563497331415 L488.1032421277352 216.26634422939244 L489.680057640989 215.8352159425384 L491.2568731542429 215.3626147886793 L492.8336886674968 214.84833644220575 L494.41050418075065 214.29232378702537 L495.9873196940045 213.69466709386484 L497.5641352072584 213.05560293625115 L499.1409507205123 212.37551187009473 L500.71776623376616 211.65491491368175 L502.29458174701995 210.894468876176 L503.87139726027385 210.09496059319036 L505.44821277352776 209.25730013782572 L507.0250282867816 208.38251308402985 L508.60184380003545 207.47173190742637 L510.17865931328936 206.5261866155616 L511.75547482654326 205.54719470540462 L513.332290339797 204.5361505513629 L514.909105853051 203.49451433040602 L516.4859213663049 202.42380059457022 L518.0627368795588 201.32556660233388 L519.6395523928126 200.2014005217196 L521.2163679060665 199.05290961712495 L522.7931834193204 197.88170853097603 L524.3699989325743 196.6894077683705 L525.9468144458281 195.47760248947262 L527.5236299590819 194.2478617094776 L529.1004454723358 193.00171800030824 L530.6772609855897 191.74065778110037 L532.2540764988436 190.46611227679136 L533.8308920120974 189.17944921519774 L535.4077075253513 187.88196532326867 L536.9845230386052 186.57487967289575 L538.561338551859 185.25932791528624 L540.1381540651129 183.93635743179078 L541.7149695783668 182.60692341677958 L543.2917850916207 181.27188589627394 L544.8686006048745 179.93200767425634 L546.4454161181283 178.58795318635237 L548.0222316313823 177.24028822966483 L549.5990471446362 175.88948052662641 L551.17586265789 174.53590107086205 L552.7526781711438 173.17982619439175 L554.3294936843977 171.82144028762985 L555.9063091976516 170.46083909771085 L557.4831247109054 169.09803352567928 L559.0599402241593 167.73295384017553 L560.6367557374132 166.3654542236436 L562.2135712506671 164.99531756766834 L563.7903867639209 163.62226043587106 L565.3672022771747 162.24593811675845 L566.9440177904287 160.86594969409816 L568.5208333036826 159.48184306949605 L570.0976488169364 158.09311987977526 L571.6744643301902 156.69924026130553 L573.2512798434441 155.2996274236064 L574.828095356698 153.89367200507485 L576.4049108699519 152.4807361956984 L577.9817263832057 151.06015762182744 L579.5585418964596 149.63125300013013 L581.1353574097135 148.19332157769185 L582.7121729229673 146.7456483852975 L584.2889884362212 145.28750733940285 L585.8658039494751 143.81816423557035 L587.442619462729 142.3368796820052 L589.0194349759828 140.84291202576753 L590.5962504892366 139.3355203263299 L592.1730660024905 137.81396743175748 L593.7498815157445 136.2775232106378 L595.3266970289983 134.7254679897494 L596.9035125422521 133.15709624173633 L598.480328055506 131.5717205600891 L600.0571435687599 129.96867595021132 L601.6339590820138 128.3473244550396 L603.2107745952676 126.70706012345937 L604.7875901085215 125.04731431725804 L606.3644056217754 123.36756134114148 L607.9412211350292 121.66732436743456 L609.5180366482831 119.94618161595457 L611.094852161537 118.2037727375008 L612.6716676747909 116.43980533966334 L614.2484831880447 114.6540615839989 L615.8252987012985 112.84640477602807 L617.4021142145524 111.01678586339244 L618.9789297278063 109.16524975317856 L620.5557452410602 107.29194135716159 L622.132560754314 105.39711127331452 L623.7093762675679 103.4811210139049 L625.2861917808218 101.54444769391989 L626.8630072940757 99.58768809961884 L628.4398228073295 97.61156206424027 L630.0166383205834 95.61691508714352 L631.5934538338373 93.60472014290127 L633.1702693470911 91.57607863877428 L634.747084860345 89.53222049154232 L636.3239003735989 87.47450330732079 L637.9007158868528 85.40441066215135 L639.4775314001066 83.32354949386047 L641.0543469133604 81.23364662968953 L642.6311624266143 79.13654448595645 L644.2079779398682 77.03419598898364 L645.7847934531221 74.92865877660614 L647.3616089663759 72.82208875001794 L648.9384244796298 70.71673305390908 L650.5152399928837 68.61492257006392 L652.0920555061375 66.51906401540481 L653.6688710193914 64.4316317392092 L655.2456865326453 62.355159317136895 L656.8225020458992 60.292231040620266 L658.399317559153 58.24547339965102 L659.9761330724068 56.21754665527726 L661.5529485856608 54.211136594918514 L663.1297640989147 52.228946559206065 L664.7065796121685 50.27368982331154 L666.2833951254223 48.348082409730466 L667.8602106386762 46.45483640123399 L669.4370261519301 44.59665381533915 L671.013841665184 42.776221092222215 L672.5906571784378 40.99620423841219 L674.1674726916917 39.259244659597016 L675.7442882049456 37.5679557043411 L677.3211037181994 35.924919931185684 L678.8979192314533 34.332687100349176 L680.4747347447072 32.79377288052217 L682.0515502579611 31.310658251086863 L683.6283657712149 29.88578956896589 L685.2051812844687 28.5215792598961 L686.7819967977227 27.22040708294753 L688.3588123109766 25.98462190903831 L689.9356278242304 24.816543944475484 L691.5124433374842 23.71846732298252 L693.0892588507381 22.69266298253359 L694.666074363992 21.741381737143058 L696.242889877246 20.866857448800033 L697.8197053904997 20.071310201098697 L699.3965209037536 19.35694937374012 L700.9733364170075 18.72597651624494 L702.5501519302613 18.18058791985652 L704.1269674435152 17.72297678909746 L705.7037829567691 17.355334918215306 L707.280598470023 17.07985378331915 L708.8574139832768 16.898724968313502 L710.4342294965306 16.81413985135191 L712.0110450097845 16.828288488492205 L713.5878605230386 16.943357642735577 L715.1646760362923 17.16152791901851 L716.7414915495461 17.4849699788316 L718.3183070628 17.91583982241184 L719.895122576054 18.456273140318103 L721.4719380893079 19.10837875079119 L723.0487536025616 19.874231153633502 L724.6255691158156 20.755862244780587 L726.2023846290695 21.75525224885763 L727.7792001423232 22.87431993939913 L729.3560156555772 24.114912226527508 L730.9328311688311 25.478793202042255 L732.509646682085 26.967632739471867 L734.0864621953388 28.582994752646016 L735.6632777085925 30.32632522134611 L737.2400932218465 32.19894009479037 L738.8169087351004 34.20201318523988 L740.3937242483543 36.336564162942466 L741.970539761608 38.60344676187759 L743.547355274862 41.0033373020745 L745.1241707881159 43.53672362951335 L746.7009863013698 46.20389456928581 L748.2778018146236 49.00492998112384 L749.8546173278775 51.93969149954262 L751.4314328411314 55.0078140340687 L753.0082483543852 58.208698097458864 L754.5850638676391 61.54150302333301 L756.161879380893 65.00514112795923 L757.7386948941469 68.59827286444477 L759.3155104074007 72.3193030127677 L760.8923259206545 76.16637794353738 L762.4691414339084 80.13738398955758 L764.0459569471623 84.22994695526558 L765.6227724604162 88.44143279076667 L767.19958797367 92.76894945475021 L768.7764034869239 97.20934998710095 L770.3532190001778 101.7592368094742 L771.9300345134316 106.41496726898646 L773.5068500266855 111.17266043603945 L775.0836655399394 116.02820516329763 L776.6604810531933 120.97726940675602 L778.2372965664471 126.01531080367664 L779.8141120797009 131.13758849378155 L781.3909275929549 136.3391761607573 L782.9677431062088 141.61497626026068 L784.5445586194626 146.95973538799046 L786.1213741327164 152.3680607281683 L787.6981896459703 157.83443750702605 L789.2750051592242 163.35324736100586 L790.8518206724781 168.9187875121366 L792.4286361857319 174.5252906266336 L794.0054516989858 180.1669452162496 L795.5822672122397 185.83791642591552 L797.1590827254935 191.53236703649918 L798.7358982387474 197.24447849849062 L800.3127137520013 202.9684718016966 L801.8895292652552 208.69862797770492 L803.466344778509 214.42930802711882 L805.0431602917628 220.15497206211097 L806.6199758050168 225.87019745727167 L808.1967913182707 231.56969580863634 L809.7736068315245 237.24832851129895 L811.3504223447783 242.9011207816763 L812.9272378580322 248.5232739695133 L814.5040533712861 254.11017602843825 L816.08086888454 259.6574100406191 L817.6576843977938 265.1607607215305 L819.2344999110477 270.61621886350923 L820.8113154243016 276.0199837114923 L822.3881309375554 281.36846330040026 L823.9649464508093 286.65827281979995 L825.5417619640632 291.88623110729725 L827.1185774773171 297.0493554066123 L828.6953929905709 302.14485455851036 L830.2722085038247 307.1701208217928 L831.8490240170786 312.12272054696246 L833.4258395303326 317.00038394606213 L835.0026550435864 321.80099421751686 L836.5794705568402 326.5225762952355 L838.1562860700941 331.163285495099 L839.733101583348 335.72139633009687 L841.3099170966019 340.1952917572315 L842.8867326098557 344.5834531052457 L844.4635481231096 348.8844509123767 L846.0403636363635 353.09693687839064 L846.0403636363635 451.0 L844.4635481231096 451.0 L842.8867326098557 451.0 L841.3099170966019 451.0 L839.733101583348 451.0 L838.1562860700941 451.0 L836.5794705568402 451.0 L835.0026550435864 451.0 L833.4258395303326 451.0 L831.8490240170786 451.0 L830.2722085038247 451.0 L828.6953929905709 451.0 L827.1185774773171 451.0 L825.5417619640632 451.0 L823.9649464508093 451.0 L822.3881309375554 451.0 L820.8113154243016 451.0 L819.2344999110477 451.0 L817.6576843977938 451.0 L816.08086888454 451.0 L814.5040533712861 451.0 L812.9272378580322 451.0 L811.3504223447783 451.0 L809.7736068315245 451.0 L808.1967913182707 451.0 L806.6199758050168 451.0 L805.0431602917628 451.0 L803.466344778509 451.0 L801.8895292652552 451.0 L800.3127137520013 451.0 L798.7358982387474 451.0 L797.1590827254935 451.0 L795.5822672122397 451.0 L794.0054516989858 451.0 L792.4286361857319 451.0 L790.8518206724781 451.0 L789.2750051592242 451.0 L787.6981896459703 451.0 L786.1213741327164 451.0 L784.5445586194626 451.0 L782.9677431062088 451.0 L781.3909275929549 451.0 L779.8141120797009 451.0 L778.2372965664471 451.0 L776.6604810531933 451.0 L775.0836655399394 451.0 L773.5068500266855 451.0 L771.9300345134316 451.0 L770.3532190001778 451.0 L768.7764034869239 451.0 L767.19958797367 451.0 L765.6227724604162 451.0 L764.0459569471623 451.0 L762.4691414339084 451.0 L760.8923259206545 451.0 L759.3155104074007 451.0 L757.7386948941469 451.0 L756.161879380893 451.0 L754.5850638676391 451.0 L753.0082483543852 451.0 L751.4314328411314 451.0 L749.8546173278775 451.0 L748.2778018146236 451.0 L746.7009863013698 451.0 L745.1241707881159 451.0 L743.547355274862 451.0 L741.970539761608 451.0 L740.3937242483543 451.0 L738.8169087351004 451.0 L737.2400932218465 451.0 L735.6632777085925 451.0 L734.0864621953388 451.0 L732.509646682085 451.0 L730.9328311688311 451.0 L729.3560156555772 451.0 L727.7792001423232 451.0 L726.2023846290695 451.0 L724.6255691158156 451.0 L723.0487536025616 451.0 L721.4719380893079 451.0 L719.895122576054 451.0 L718.3183070628 451.0 L716.7414915495461 451.0 L715.1646760362923 451.0 L713.5878605230386 451.0 L712.0110450097845 451.0 L710.4342294965306 451.0 L708.8574139832768 451.0 L707.280598470023 451.0 L705.7037829567691 451.0 L704.1269674435152 451.0 L702.5501519302613 451.0 L700.9733364170075 451.0 L699.3965209037536 451.0 L697.8197053904997 451.0 L696.242889877246 451.0 L694.666074363992 451.0 L693.0892588507381 451.0 L691.5124433374842 451.0 L689.9356278242304 451.0 L688.3588123109766 451.0 L686.7819967977227 451.0 L685.2051812844687 451.0 L683.6283657712149 451.0 L682.0515502579611 451.0 L680.4747347447072 451.0 L678.8979192314533 451.0 L677.3211037181994 451.0 L675.7442882049456 451.0 L674.1674726916917 451.0 L672.5906571784378 451.0 L671.013841665184 451.0 L669.4370261519301 451.0 L667.8602106386762 451.0 L666.2833951254223 451.0 L664.7065796121685 451.0 L663.1297640989147 451.0 L661.5529485856608 451.0 L659.9761330724068 451.0 L658.399317559153 451.0 L656.8225020458992 451.0 L655.2456865326453 451.0 L653.6688710193914 451.0 L652.0920555061375 451.0 L650.5152399928837 451.0 L648.9384244796298 451.0 L647.3616089663759 451.0 L645.7847934531221 451.0 L644.2079779398682 451.0 L642.6311624266143 451.0 L641.0543469133604 451.0 L639.4775314001066 451.0 L637.9007158868528 451.0 L636.3239003735989 451.0 L634.747084860345 451.0 L633.1702693470911 451.0 L631.5934538338373 451.0 L630.0166383205834 451.0 L628.4398228073295 451.0 L626.8630072940757 451.0 L625.2861917808218 451.0 L623.7093762675679 451.0 L622.132560754314 451.0 L620.5557452410602 451.0 L618.9789297278063 451.0 L617.4021142145524 451.0 L615.8252987012985 451.0 L614.2484831880447 451.0 L612.6716676747909 451.0 L611.094852161537 451.0 L609.5180366482831 451.0 L607.9412211350292 451.0 L606.3644056217754 451.0 L604.7875901085215 451.0 L603.2107745952676 451.0 L601.6339590820138 451.0 L600.0571435687599 451.0 L598.480328055506 451.0 L596.9035125422521 451.0 L595.3266970289983 451.0 L593.7498815157445 451.0 L592.1730660024905 451.0 L590.5962504892366 451.0 L589.0194349759828 451.0 L587.442619462729 451.0 L585.8658039494751 451.0 L584.2889884362212 451.0 L582.7121729229673 451.0 L581.1353574097135 451.0 L579.5585418964596 451.0 L577.9817263832057 451.0 L576.4049108699519 451.0 L574.828095356698 451.0 L573.2512798434441 451.0 L571.6744643301902 451.0 L570.0976488169364 451.0 L568.5208333036826 451.0 L566.9440177904287 451.0 L565.3672022771747 451.0 L563.7903867639209 451.0 L562.2135712506671 451.0 L560.6367557374132 451.0 L559.0599402241593 451.0 L557.4831247109054 451.0 L555.9063091976516 451.0 L554.3294936843977 451.0 L552.7526781711438 451.0 L551.17586265789 451.0 L549.5990471446362 451.0 L548.0222316313823 451.0 L546.4454161181283 451.0 L544.8686006048745 451.0 L543.2917850916207 451.0 L541.7149695783668 451.0 L540.1381540651129 451.0 L538.561338551859 451.0 L536.9845230386052 451.0 L535.4077075253513 451.0 L533.8308920120974 451.0 L532.2540764988436 451.0 L530.6772609855897 451.0 L529.1004454723358 451.0 L527.5236299590819 451.0 L525.9468144458281 451.0 L524.3699989325743 451.0 L522.7931834193204 451.0 L521.2163679060665 451.0 L519.6395523928126 451.0 L518.0627368795588 451.0 L516.4859213663049 451.0 L514.909105853051 451.0 L513.332290339797 451.0 L511.75547482654326 451.0 L510.17865931328936 451.0 L508.60184380003545 451.0 L507.0250282867816 451.0 L505.44821277352776 451.0 L503.87139726027385 451.0 L502.29458174701995 451.0 L500.71776623376616 451.0 L499.1409507205123 451.0 L497.5641352072584 451.0 L495.9873196940045 451.0 L494.41050418075065 451.0 L492.8336886674968 451.0 L491.2568731542429 451.0 L489.680057640989 451.0 L488.1032421277352 451.0 L486.52642661448135 451.0 L484.94961110122745 451.0 L483.37279558797354 451.0 L481.7959800747197 451.0 L480.2191645614659 451.0 L478.64234904821194 451.0 L477.06553353495804 451.0 L475.48871802170424 451.0 L473.9119025084504 451.0 L472.3350869951965 451.0 L470.7582714819426 451.0 L469.18145596868874 451.0 L467.60464045543495 451.0 L466.027824942181 451.0 L464.4510094289271 451.0 L462.8741939156733 451.0 L461.29737840241944 451.0 L459.72056288916554 451.0 L458.14374737591163 451.0 L456.5669318626578 451.0 L454.990116349404 451.0 L453.4133008361501 451.0 L451.8364853228961 451.0 L450.25966980964233 451.0 L448.6828542963885 451.0 L447.1060387831346 451.0 L445.5292232698807 451.0 L443.9524077566268 451.0 L442.375592243373 451.0 L440.79877673011913 451.0 L439.2219612168652 451.0 L437.6451457036114 451.0 L436.06833019035747 451.0 L434.4915146771036 451.0 L432.9146991638498 451.0 L431.33788365059587 451.0 L429.761068137342 451.0 L428.1842526240882 451.0 L426.60743711083427 451.0 L425.0306215975804 451.0 L423.4538060843266 451.0 L421.87699057107267 451.0 L420.3001750578188 451.0 L418.7233595445649 451.0 L417.14654403131107 451.0 L415.5697285180572 451.0 L413.9929130048033 451.0 L412.41609749154946 451.0 L410.8392819782956 451.0 L409.2624664650417 451.0 L407.68565095178786 451.0 L406.10883543853396 451.0 L404.5320199252801 451.0 L402.95520441202626 451.0 L401.37838889877236 451.0 L399.8015733855185 451.0 L398.22475787226466 451.0 L396.64794235901076 451.0 L395.0711268457569 451.0 L393.49431133250306 451.0 L391.91749581924915 451.0 L390.3406803059953 451.0 L388.7638647927414 451.0 L387.18704927948755 451.0 L385.6102337662337 451.0 L384.0334182529798 451.0 L382.45660273972595 451.0 L380.8797872264721 451.0 L379.3029717132182 451.0 L377.72615619996435 451.0 L376.14934068671045 451.0 L374.5725251734566 451.0 L372.99570966020275 451.0 L371.41889414694884 451.0 L369.842078633695 451.0 L368.26526312044115 451.0 L366.68844760718724 451.0 L365.1116320939334 451.0 L363.53481658067955 451.0 L361.95800106742564 451.0 L360.3811855541718 451.0 L358.8043700409179 451.0 L357.22755452766404 451.0 L355.6507390144102 451.0 L354.0739235011563 451.0 L352.49710798790244 451.0 L350.9202924746486 451.0 L349.3434769613947 451.0 L347.76666144814084 451.0 L346.18984593488693 451.0 L344.6130304216331 451.0 L343.03621490837924 451.0 L341.45939939512533 451.0 L339.8825838818715 451.0 L338.30576836861763 451.0 L336.72895285536373 451.0 L335.1521373421099 451.0 L333.57532182885603 451.0 L331.9985063156021 451.0 L330.4216908023483 451.0 L328.8448752890944 451.0 L327.2680597758405 451.0 L325.6912442625867 451.0 L324.1144287493328 451.0 L322.5376132360789 451.0 L320.9607977228251 451.0 L319.3839822095712 451.0 L317.8071666963173 451.0 L316.2303511830634 451.0 L314.65353566980957 451.0 L313.0767201565557 451.0 L311.4999046433018 451.0 L309.92308913004797 451.0 L308.3462736167941 451.0 L306.7694581035402 451.0 L305.19264259028637 451.0 L303.6158270770325 451.0 L302.0390115637786 451.0 L300.46219605052477 451.0 L298.88538053727086 451.0 L297.308565024017 451.0 L295.73174951076317 451.0 L294.1549339975093 451.0 L292.5781184842554 451.0 L291.00130297100156 451.0 L289.42448745774766 451.0 L287.8476719444938 451.0 L286.27085643123996 451.0 L284.69404091798606 451.0 L283.1172254047322 451.0 L281.54040989147836 451.0 L279.96359437822446 451.0 L278.3867788649706 451.0 L276.8099633517167 451.0 L275.23314783846286 451.0 L273.656332325209 451.0 L272.0795168119551 451.0 L270.50270129870125 451.0 L268.9258857854474 451.0 L267.3490702721935 451.0 L265.77225475893965 451.0 L264.1954392456858 451.0 L262.6186237324319 451.0 L261.04180821917805 451.0 L259.46499270592415 451.0 L257.8881771926703 451.0 L256.31136167941645 451.0 L254.73454616616254 451.0 L253.15773065290867 451.0 L251.58091513965482 451.0 L250.00409962640094 451.0 L248.42728411314707 451.0 L246.85046859989322 451.0 L245.27365308663934 451.0 L243.69683757338547 451.0 L242.1200220601316 451.0 L240.54320654687774 451.0 L238.96639103362386 451.0 L237.38957552037 451.0 L235.8127600071161 451.0 L234.23594449386226 451.0 L232.6591289806084 451.0 L231.0823134673545 451.0 L229.50549795410063 451.0 L227.92868244084679 451.0 L226.3518669275929 451.0 L224.77505141433903 451.0 L223.19823590108516 451.0 L221.6214203878313 451.0 L220.04460487457743 451.0 L218.46778936132355 451.0 L216.8909738480697 451.0 L215.31415833481583 451.0 L213.73734282156195 451.0 L212.16052730830808 451.0 L210.58371179505423 451.0 L209.00689628180035 451.0 L207.43008076854647 451.0 L205.8532652552926 451.0 L204.27644974203875 451.0 L202.69963422878487 451.0 L201.122818715531 451.0 L199.54600320227712 451.0 L197.96918768902327 451.0 L196.3923721757694 451.0 L194.81555666251552 451.0 L193.23874114926164 451.0 L191.6619256360078 451.0 L190.08511012275392 451.0 L188.50829460950004 451.0 L186.9314790962462 451.0 L185.35466358299232 451.0 L183.77784806973844 451.0 L182.20103255648456 451.0 L180.62421704323071 451.0 L179.04740152997684 451.0 L177.47058601672296 451.0 L175.89377050346909 451.0 L174.31695499021524 451.0 L172.74013947696136 451.0 L171.16332396370748 451.0 L169.5865084504536 451.0 L168.00969293719976 451.0 L166.43287742394588 451.0 L164.856061910692 451.0 L163.27924639743816 451.0 L161.70243088418428 451.0 L160.1256153709304 451.0 L158.54879985767653 451.0 L156.97198434442268 451.0 L155.3951688311688 451.0 L153.81835331791493 451.0 L152.24153780466108 451.0 L150.6647222914072 451.0 L149.08790677815333 451.0 L147.51109126489945 451.0 L145.9342757516456 451.0 L144.35746023839172 451.0 L142.78064472513785 451.0 L141.20382921188397 451.0 L139.62701369863012 451.0 L138.05019818537625 451.0 L136.47338267212237 451.0 L134.8965671588685 451.0 L133.31975164561464 451.0 L131.74293613236077 451.0 L130.1661206191069 451.0 L128.58930510585304 451.0 L127.01248959259917 451.0 L125.43567407934529 451.0 L123.85885856609141 451.0 L122.28204305283757 451.0 L120.70522753958369 451.0 L119.12841202632981 451.0 L117.55159651307594 451.0 L115.97478099982209 451.0 L114.39796548656821 451.0 L112.82114997331433 451.0 L111.24433446006046 451.0 L109.66751894680661 451.0 L108.09070343355273 451.0 L106.51388792029886 451.0 L104.93707240704498 451.0 L103.36025689379113 451.0 L101.78344138053725 451.0 L100.20662586728338 451.0 L98.62981035402952 451.0 L97.05299484077565 451.0 L95.47617932752178 451.0 L93.8993638142679 451.0 L92.32254830101404 451.0 L90.74573278776018 451.0 L89.1689172745063 451.0 L87.59210176125242 451.0 L86.01528624799856 451.0 L84.4384707347447 451.0 L82.86165522149082 451.0 L81.28483970823696 451.0 L79.7080241949831 451.0 L78.13120868172922 451.0 L76.55439316847534 451.0 L74.97757765522148 451.0 L73.40076214196762 451.0 L71.82394662871374 451.0 L70.24713111545987 451.0 L68.670315602206 451.0 L67.09350008895214 451.0 L65.51668457569826 451.0 L63.939869062444394 451.0 L62.363053549190525 451.0 L60.78623803593666 451.0 L59.209422522682786 451.0 L57.632607009428924 451.0 L56.05579149617505 451.0 L54.478975982921185 451.0 L52.90216046966731 451.0 L51.325344956413446 451.0 L49.748529443159576 451.0 L48.17171392990571 451.0 L46.59489841665184 451.0 L45.01808290339797 451.0 L43.4412673901441 451.0 L41.86445187689023 451.0 L40.28763636363636 451.0 Z" fill="rgb(27,158,119)" stroke-width="1.0" fill-opacity="0.2980392156862745">
                    </path>
                </g>
                <g>
                    <path d="M40.28763636363636 351.5415813541139 L40.28763636363636 351.5415813541139 L41.86445187689023 347.70579291642036 L43.4412673901441 343.8227311079718 L45.01808290339797 339.8950411899087 L46.59489841665184 335.92534803617673 L48.17171392990571 331.9162564457887 L49.748529443159576 327.8703530091543 L51.325344956413446 323.7902093479664 L52.90216046966731 319.67838651894374 L54.478975982921185 315.53744034841316 L56.05579149617505 311.3699274478331 L57.632607009428924 307.17841165023117 L59.209422522682786 302.9654706043974 L60.78623803593666 298.7337022671283 L62.363053549190525 294.48573104442346 L63.939869062444394 290.22421334874906 L65.51668457569826 285.95184236175044 L67.09350008895214 281.67135181889705 L68.670315602206 277.38551866357216 L70.24713111545987 273.09716445238416 L71.82394662871374 268.8091554298568 L73.40076214196762 264.5244012281446 L74.97757765522148 260.245852184782 L76.55439316847534 255.97649530811938 L78.13120868172922 251.71934895465185 L79.7080241949831 247.47745631413326 L81.28483970823696 243.25387782670262 L82.86165522149082 239.05168268010505 L84.4384707347447 234.873939554497 L86.01528624799856 230.72370679626755 L87.59210176125242 226.60402221142795 L89.1689172745063 222.5178926725057 L90.74573278776018 218.4682837312016 L92.32254830101404 214.4581094224824 L93.8993638142679 210.49022243429758 L95.47617932752178 206.5674048018921 L97.05299484077565 202.69235926646797 L98.62981035402952 198.86770141614826 L100.20662586728338 195.0959527030925 L101.78344138053725 191.37953440507647 L103.36025689379113 187.72076257341513 L104.93707240704498 184.12184398303214 L106.51388792029886 180.5848730749114 L108.09070343355273 177.11182985673616 L109.66751894680661 173.704578705767 L111.24433446006046 170.36486799774764 L112.82114997331433 167.0943304691953 L114.39796548656821 163.89448420646704 L115.97478099982209 160.76673414506718 L117.55159651307594 157.71237395584353 L119.12841202632981 154.73258819181416 L120.70522753958369 151.82845457005095 L122.28204305283757 149.00094626678464 L123.85885856609141 146.25093411147708 L125.43567407934529 143.57918857535537 L127.01248959259917 140.9863814628352 L128.58930510585304 138.47308722918746 L130.1661206191069 136.0397838641797 L131.74293613236077 133.68685329955912 L133.31975164561464 131.41458131707265 L134.8965671588685 129.22315695266718 L136.47338267212237 127.11267141189961 L138.05019818537625 125.08311652972242 L139.62701369863012 123.13438282606842 L141.20382921188397 121.26625722455987 L142.78064472513785 119.47842051660251 L144.35746023839172 117.77044466606407 L145.9342757516456 116.14179006023801 L147.51109126489945 114.59180282131229 L149.08790677815333 113.11971229833426 L150.6647222914072 111.72462886291072 L152.24153780466108 110.4055421325566 L153.81835331791493 109.1613197437344 L155.3951688311688 107.99070679184126 L156.97198434442268 106.89232604867351 L158.54879985767653 105.86467905836605 L160.1256153709304 104.90614820143736 L161.70243088418428 104.01499980302214 L163.27924639743816 103.18938834624572 L164.856061910692 102.42736183526904 L166.43287742394588 101.72686833412581 L168.00969293719976 101.08576368961894 L169.5865084504536 100.50182042652017 L171.16332396370748 99.97273778393969 L172.74013947696136 99.49615284247534 L174.31695499021524 99.06965267195795 L175.89377050346909 98.69078741147513 L177.47058601672296 98.35708417542025 L179.04740152997684 98.06606166294006 L180.62421704323071 97.81524533319441 L182.20103255648456 97.60218299546989 L183.77784806973844 97.42446065195298 L185.35466358299232 97.27971842172843 L186.9314790962462 97.16566636793357 L188.50829460950004 97.08010004521077 L190.08511012275392 97.0209155831605 L191.6619256360078 96.98612412217244 L193.23874114926164 96.9738654215439 L194.81555666251552 96.98242046597954 L196.3923721757694 97.01022290546132 L197.96918768902327 97.05586917490018 L199.54600320227712 97.11812715369996 L201.122818715531 97.1959432417367 L202.69963422878487 97.28844774617266 L204.27644974203875 97.39495849372088 L205.8532652552926 97.5149826044867 L207.43008076854647 97.64821638656429 L209.00689628180035 97.79454333358626 L210.58371179505423 97.95403023271615 L212.16052730830808 98.126921413952 L213.73734282156195 98.31363119668964 L215.31415833481583 98.51473461219143 L216.8909738480697 98.7309565039335 L218.46778936132355 98.96315912848587 L220.04460487457743 99.21232839893156 L221.6214203878313 99.47955893070707 L223.19823590108516 99.76603806395502 L224.77505141433903 100.0730290492761 L226.3518669275929 100.40185359340762 L227.92868244084679 100.75387396726711 L229.50549795410063 101.13047488305375 L231.0823134673545 101.53304534672299 L232.6591289806084 101.96296069005132 L234.23594449386226 102.42156498046552 L235.8127600071161 102.91015399850716 L237.38957552037 103.42995896143896 L238.96639103362386 103.98213115827366 L240.54320654687774 104.56772764576914 L242.1200220601316 105.1876981374516 L243.69683757338547 105.84287319937454 L245.27365308663934 106.53395384618716 L246.85046859989322 107.26150261088293 L248.42728411314707 108.0259361410616 L250.00409962640094 108.82751935372693 L251.58091513965482 109.66636116108674 L253.15773065290867 110.54241175991177 L254.73454616616254 111.45546145966159 L256.31136167941645 112.40514100698914 L257.8881771926703 113.39092334969348 L259.46499270592415 114.41212676896913 L261.04180821917805 115.46791929766562 L262.6186237324319 116.55732433204133 L264.1954392456858 117.67922733653745 L265.77225475893965 118.83238353529111 L267.3490702721935 120.01542647950146 L268.9258857854474 121.22687737750374 L270.50270129870125 122.46515507300876 L272.0795168119551 123.72858655778634 L273.656332325209 125.01541790651135 L275.23314783846286 126.32382552435354 L276.8099633517167 127.65192760154974 L278.3867788649706 128.99779567367216 L279.96359437822446 130.3594661912535 L281.54040989147836 131.73495200785413 L283.1172254047322 133.12225370157734 L284.69404091798606 134.5193706505354 L286.27085643123996 135.92431178935527 L287.8476719444938 137.33510597908383 L289.42448745774766 138.74981192964526 L291.00130297100156 140.16652761900104 L292.5781184842554 141.58339915978382 L294.1549339975093 142.9986290691421 L295.73174951076317 144.41048390355917 L297.308565024017 145.81730122567484 L298.88538053727086 147.21749587551398 L300.46219605052477 148.6095655240606 L302.0390115637786 149.99209549201396 L303.6158270770325 151.36376282235767 L305.19264259028637 152.72333960000418 L306.7694581035402 154.06969551740667 L308.3462736167941 155.40179968996267 L309.92308913004797 156.71872173009524 L311.4999046433018 158.01963209399247 L313.0767201565557 159.30380171984126 L314.65353566980957 160.57060098087436 L316.2303511830634 161.8194979815417 L317.8071666963173 163.05005622862262 L319.3839822095712 164.26193171404395 L320.9607977228251 165.45486944878138 L322.5376132360789 166.62869949128793 L324.1144287493328 167.78333251633615 L325.6912442625867 168.91875497269768 L327.2680597758405 170.0350238801896 L328.8448752890944 171.13226131790526 L330.4216908023483 172.2106486568669 L331.9985063156021 173.2704205905847 L333.57532182885603 174.3118590175564 L335.1521373421099 175.33528682924037 L336.72895285536373 176.34106165657766 L338.30576836861763 177.32956962712478 L339.8825838818715 178.30121918359293 L341.45939939512533 179.2564350128776 L343.03621490837924 180.19565213298887 L344.6130304216331 181.1193101830841 L346.18984593488693 182.02784795957575 L347.76666144814084 182.921698238903 L349.3434769613947 183.80128292469198 L350.9202924746486 184.667008554718 L352.49710798790244 185.5192621997009 L354.0739235011563 186.35840778322068 L355.6507390144102 187.1847828489171 L357.22755452766404 187.99869579750413 L358.8043700409179 188.80042361303686 L360.3811855541718 189.59021009384247 L361.95800106742564 190.3682645999899 L363.53481658067955 191.13476132489734 L365.1116320939334 191.88983909453117 L366.68844760718724 192.6336016931415 L368.26526312044115 193.36611870972206 L369.842078633695 194.08742689456977 L371.41889414694884 194.79753201000193 L372.99570966020275 195.49641115432289 L374.5725251734566 196.18401553218476 L376.14934068671045 196.86027363953957 L377.72615619996435 197.5250948252274 L379.3029717132182 198.17837318619792 L380.8797872264721 198.8199917473893 L382.45660273972595 199.44982687257294 L384.0334182529798 200.06775284700763 L385.6102337662337 200.67364656853505 L387.18704927948755 201.26739227947164 L388.7638647927414 201.84888626816647 L390.3406803059953 202.41804146657626 L391.91749581924915 202.9747918681158 L393.49431133250306 203.51909668905014 L395.0711268457569 204.05094419696093 L396.64794235901076 204.57035513090494 L398.22475787226466 205.0773856403052 L399.8015733855185 205.57212967313362 L401.37838889877236 206.05472074904756 L402.95520441202626 206.52533305935586 L404.5320199252801 206.9841818426969 L406.10883543853396 207.43152299465905 L407.68565095178786 207.86765187890876 L409.2624664650417 208.29290131828083 L410.8392819782956 208.70763875634356 L412.41609749154946 209.11226259216772 L413.9929130048033 209.50719770427588 L415.5697285180572 209.8928901931848 L417.14654403131107 210.26980138554913 L418.7233595445649 210.63840115637683 L420.3001750578188 210.99916063899218 L421.87699057107267 211.35254440499304 L423.4538060843266 211.69900220801458 L425.0306215975804 212.03896039571114 L426.60743711083427 212.37281310376034 L428.1842526240882 212.7009133530982 L429.761068137342 213.0235641775911 L431.33788365059587 213.3410099133953 L432.9146991638498 213.6534277829682 L434.4915146771036 213.96091990674708 L436.06833019035747 214.2635058726503 L437.6451457036114 214.56111598931068 L439.2219612168652 214.85358534195544 L440.79877673011913 215.14064876087411 L442.375592243373 215.42193680157752 L443.9524077566268 215.69697282328454 L445.5292232698807 215.96517123772122 L447.1060387831346 216.22583698498042 L448.6828542963885 216.47816627632287 L450.25966980964233 216.72124862618986 L451.8364853228961 216.95407017803092 L453.4133008361501 217.17551831004198 L454.990116349404 217.38438748904034 L456.5669318626578 217.57938632321887 L458.14374737591163 217.75914574752136 L459.72056288916554 217.92222825952877 L461.29737840241944 218.06713810954196 L462.8741939156733 218.1923323351383 L464.4510094289271 218.29623251946725 L466.027824942181 218.377237142974 L467.60464045543495 218.4337343906328 L469.18145596868874 218.46411527183068 L470.7582714819426 218.4667869060229 L472.3350869951965 218.4401858266167 L473.9119025084504 218.38279115608023 L475.48871802170424 218.29313750810982 L477.06553353495804 218.16982747728412 L478.64234904821194 218.01154358309654 L480.2191645614659 217.81705954309797 L481.7959800747197 217.5852507593357 L483.37279558797354 217.31510391270135 L484.94961110122745 217.00572557156121 L486.52642661448135 216.6563497331415 L488.1032421277352 216.26634422939244 L489.680057640989 215.8352159425384 L491.2568731542429 215.3626147886793 L492.8336886674968 214.84833644220575 L494.41050418075065 214.29232378702537 L495.9873196940045 213.69466709386484 L497.5641352072584 213.05560293625115 L499.1409507205123 212.37551187009473 L500.71776623376616 211.65491491368175 L502.29458174701995 210.894468876176 L503.87139726027385 210.09496059319036 L505.44821277352776 209.25730013782572 L507.0250282867816 208.38251308402985 L508.60184380003545 207.47173190742637 L510.17865931328936 206.5261866155616 L511.75547482654326 205.54719470540462 L513.332290339797 204.5361505513629 L514.909105853051 203.49451433040602 L516.4859213663049 202.42380059457022 L518.0627368795588 201.32556660233388 L519.6395523928126 200.2014005217196 L521.2163679060665 199.05290961712495 L522.7931834193204 197.88170853097603 L524.3699989325743 196.6894077683705 L525.9468144458281 195.47760248947262 L527.5236299590819 194.2478617094776 L529.1004454723358 193.00171800030824 L530.6772609855897 191.74065778110037 L532.2540764988436 190.46611227679136 L533.8308920120974 189.17944921519774 L535.4077075253513 187.88196532326867 L536.9845230386052 186.57487967289575 L538.561338551859 185.25932791528624 L540.1381540651129 183.93635743179078 L541.7149695783668 182.60692341677958 L543.2917850916207 181.27188589627394 L544.8686006048745 179.93200767425634 L546.4454161181283 178.58795318635237 L548.0222316313823 177.24028822966483 L549.5990471446362 175.88948052662641 L551.17586265789 174.53590107086205 L552.7526781711438 173.17982619439175 L554.3294936843977 171.82144028762985 L555.9063091976516 170.46083909771085 L557.4831247109054 169.09803352567928 L559.0599402241593 167.73295384017553 L560.6367557374132 166.3654542236436 L562.2135712506671 164.99531756766834 L563.7903867639209 163.62226043587106 L565.3672022771747 162.24593811675845 L566.9440177904287 160.86594969409816 L568.5208333036826 159.48184306949605 L570.0976488169364 158.09311987977526 L571.6744643301902 156.69924026130553 L573.2512798434441 155.2996274236064 L574.828095356698 153.89367200507485 L576.4049108699519 152.4807361956984 L577.9817263832057 151.06015762182744 L579.5585418964596 149.63125300013013 L581.1353574097135 148.19332157769185 L582.7121729229673 146.7456483852975 L584.2889884362212 145.28750733940285 L585.8658039494751 143.81816423557035 L587.442619462729 142.3368796820052 L589.0194349759828 140.84291202576753 L590.5962504892366 139.3355203263299 L592.1730660024905 137.81396743175748 L593.7498815157445 136.2775232106378 L595.3266970289983 134.7254679897494 L596.9035125422521 133.15709624173633 L598.480328055506 131.5717205600891 L600.0571435687599 129.96867595021132 L601.6339590820138 128.3473244550396 L603.2107745952676 126.70706012345937 L604.7875901085215 125.04731431725804 L606.3644056217754 123.36756134114148 L607.9412211350292 121.66732436743456 L609.5180366482831 119.94618161595457 L611.094852161537 118.2037727375008 L612.6716676747909 116.43980533966334 L614.2484831880447 114.6540615839989 L615.8252987012985 112.84640477602807 L617.4021142145524 111.01678586339244 L618.9789297278063 109.16524975317856 L620.5557452410602 107.29194135716159 L622.132560754314 105.39711127331452 L623.7093762675679 103.4811210139049 L625.2861917808218 101.54444769391989 L626.8630072940757 99.58768809961884 L628.4398228073295 97.61156206424027 L630.0166383205834 95.61691508714352 L631.5934538338373 93.60472014290127 L633.1702693470911 91.57607863877428 L634.747084860345 89.53222049154232 L636.3239003735989 87.47450330732079 L637.9007158868528 85.40441066215135 L639.4775314001066 83.32354949386047 L641.0543469133604 81.23364662968953 L642.6311624266143 79.13654448595645 L644.2079779398682 77.03419598898364 L645.7847934531221 74.92865877660614 L647.3616089663759 72.82208875001794 L648.9384244796298 70.71673305390908 L650.5152399928837 68.61492257006392 L652.0920555061375 66.51906401540481 L653.6688710193914 64.4316317392092 L655.2456865326453 62.355159317136895 L656.8225020458992 60.292231040620266 L658.399317559153 58.24547339965102 L659.9761330724068 56.21754665527726 L661.5529485856608 54.211136594918514 L663.1297640989147 52.228946559206065 L664.7065796121685 50.27368982331154 L666.2833951254223 48.348082409730466 L667.8602106386762 46.45483640123399 L669.4370261519301 44.59665381533915 L671.013841665184 42.776221092222215 L672.5906571784378 40.99620423841219 L674.1674726916917 39.259244659597016 L675.7442882049456 37.5679557043411 L677.3211037181994 35.924919931185684 L678.8979192314533 34.332687100349176 L680.4747347447072 32.79377288052217 L682.0515502579611 31.310658251086863 L683.6283657712149 29.88578956896589 L685.2051812844687 28.5215792598961 L686.7819967977227 27.22040708294753 L688.3588123109766 25.98462190903831 L689.9356278242304 24.816543944475484 L691.5124433374842 23.71846732298252 L693.0892588507381 22.69266298253359 L694.666074363992 21.741381737143058 L696.242889877246 20.866857448800033 L697.8197053904997 20.071310201098697 L699.3965209037536 19.35694937374012 L700.9733364170075 18.72597651624494 L702.5501519302613 18.18058791985652 L704.1269674435152 17.72297678909746 L705.7037829567691 17.355334918215306 L707.280598470023 17.07985378331915 L708.8574139832768 16.898724968313502 L710.4342294965306 16.81413985135191 L712.0110450097845 16.828288488492205 L713.5878605230386 16.943357642735577 L715.1646760362923 17.16152791901851 L716.7414915495461 17.4849699788316 L718.3183070628 17.91583982241184 L719.895122576054 18.456273140318103 L721.4719380893079 19.10837875079119 L723.0487536025616 19.874231153633502 L724.6255691158156 20.755862244780587 L726.2023846290695 21.75525224885763 L727.7792001423232 22.87431993939913 L729.3560156555772 24.114912226527508 L730.9328311688311 25.478793202042255 L732.509646682085 26.967632739471867 L734.0864621953388 28.582994752646016 L735.6632777085925 30.32632522134611 L737.2400932218465 32.19894009479037 L738.8169087351004 34.20201318523988 L740.3937242483543 36.336564162942466 L741.970539761608 38.60344676187759 L743.547355274862 41.0033373020745 L745.1241707881159 43.53672362951335 L746.7009863013698 46.20389456928581 L748.2778018146236 49.00492998112384 L749.8546173278775 51.93969149954262 L751.4314328411314 55.0078140340687 L753.0082483543852 58.208698097458864 L754.5850638676391 61.54150302333301 L756.161879380893 65.00514112795923 L757.7386948941469 68.59827286444477 L759.3155104074007 72.3193030127677 L760.8923259206545 76.16637794353738 L762.4691414339084 80.13738398955758 L764.0459569471623 84.22994695526558 L765.6227724604162 88.44143279076667 L767.19958797367 92.76894945475021 L768.7764034869239 97.20934998710095 L770.3532190001778 101.7592368094742 L771.9300345134316 106.41496726898646 L773.5068500266855 111.17266043603945 L775.0836655399394 116.02820516329763 L776.6604810531933 120.97726940675602 L778.2372965664471 126.01531080367664 L779.8141120797009 131.13758849378155 L781.3909275929549 136.3391761607573 L782.9677431062088 141.61497626026068 L784.5445586194626 146.95973538799046 L786.1213741327164 152.3680607281683 L787.6981896459703 157.83443750702605 L789.2750051592242 163.35324736100586 L790.8518206724781 168.9187875121366 L792.4286361857319 174.5252906266336 L794.0054516989858 180.1669452162496 L795.5822672122397 185.83791642591552 L797.1590827254935 191.53236703649918 L798.7358982387474 197.24447849849062 L800.3127137520013 202.9684718016966 L801.8895292652552 208.69862797770492 L803.466344778509 214.42930802711882 L805.0431602917628 220.15497206211097 L806.6199758050168 225.87019745727167 L808.1967913182707 231.56969580863634 L809.7736068315245 237.24832851129895 L811.3504223447783 242.9011207816763 L812.9272378580322 248.5232739695133 L814.5040533712861 254.11017602843825 L816.08086888454 259.6574100406191 L817.6576843977938 265.1607607215305 L819.2344999110477 270.61621886350923 L820.8113154243016 276.0199837114923 L822.3881309375554 281.36846330040026 L823.9649464508093 286.65827281979995 L825.5417619640632 291.88623110729725 L827.1185774773171 297.0493554066123 L828.6953929905709 302.14485455851036 L830.2722085038247 307.1701208217928 L831.8490240170786 312.12272054696246 L833.4258395303326 317.00038394606213 L835.0026550435864 321.80099421751686 L836.5794705568402 326.5225762952355 L838.1562860700941 331.163285495099 L839.733101583348 335.72139633009687 L841.3099170966019 340.1952917572315 L842.8867326098557 344.5834531052457 L844.4635481231096 348.8844509123767 L846.0403636363635 353.09693687839064 " fill="none" stroke-width="1.0" stroke="rgb(0,128,0)" stroke-opacity="1.0">
                    </path>
                </g>
            </g>
        </g>
        <g class="plt-axis">
            <g transform="translate(4.0 235.5 ) rotate(-90.0 ) " class="plt-axis-title">
                <text text-anchor="middle" dy="0.7em">
                    density
                </text>
            </g>
        </g>
        <g class="plt-axis">
            <g transform="translate(492.264 496.0 ) " class="plt-axis-title">
                <text text-anchor="middle">
                    rating
                </text>
            </g>
        </g>
        <g transform="translate(945.428 220.5 ) " class="plt_legend">
            <rect x="5.0" y="5.0" height="49.0" width="44.572" fill="rgb(255,255,255)" fill-opacity="1.0">
            </rect>
            <g transform="translate(10.0 10.0 ) ">
                <g class="legend-title" transform="translate(0.0 -4.0 ) ">
                    <text dy="0.7em">
                        cond
                    </text>
                </g>
                <g transform="translate(0.0 12.0 ) ">
                    <g transform="">
                        <g>
                            <rect x="1.0" y="1.0" height="21.0" width="21.0" stroke-width="1.0" stroke="rgb(255,255,255)" stroke-opacity="1.0" fill="rgb(255,255,255)" fill-opacity="1.0">
                            </rect>
                            <g transform="translate(1.0 1.0 ) ">
                                <g>
                                    <rect x="0.0" y="0.0" height="21.0" width="21.0" fill="rgb(27,158,119)" fill-opacity="1.0">
                                    </rect>
                                    <line x1="0.0" y1="21.0" x2="21.0" y2="0.0" stroke="rgb(0,128,0)" stroke-opacity="1.0" fill="rgb(27,158,119)" fill-opacity="1.0" stroke-width="1.0">
                                    </line>
                                </g>
                            </g>
                            <rect x="0.0" y="0.0" height="23.0" width="23.0" stroke-width="1.0" stroke="rgb(255,255,255)" stroke-opacity="1.0" fill="none">
                            </rect>
                        </g>
                        <g transform="translate(26.35 11.5 ) ">
                            <text dy="0.35em">
                                0
                            </text>
                        </g>
                    </g>
                </g>
            </g>
        </g>
    </g>
</svg>